<svg xmlns="http://www.w3.org/2000/svg" xml:space="preserve" viewBox="0.7 1 22.6 22.02"><path fill="currentColor" d="M12 1C5.7 1 .7 6 .7 12.3c0 5 3.2 9.2 7.7 10.7.6.1.8-.2.8-.5v-1.9C6 21.2 5.4 19 5.4 19c-.5-1.3-1.3-1.7-1.3-1.7-1-.7.1-.7.1-.7 1.1.1 1.7 1.2 1.7 1.2 1 1.7 2.7 1.2 3.3.9.1-.7.4-1.2.7-1.5-2.5-.2-5.1-1.2-5.1-5.5 0-1.2.4-2.2 1.2-3-.1-.3-.5-1.4.1-3 0 0 1-.3 3.1 1.2.9-.3 1.8-.5 2.8-.5s1.9.1 2.8.4c2.2-1.5 3.1-1.2 3.1-1.2.6 1.6.2 2.7.1 3 .7.8 1.2 1.8 1.2 3 0 4.4-2.6 5.3-5.2 5.6.4.3.8 1 .8 2.1v3.1c0 .3.2.7.8.5 4.5-1.5 7.7-5.7 7.7-10.7C23.3 6 18.3 1 12 1z" class="st0"/></svg>